<svg width="24" height="24" viewBox="0 0 24 24" fill="none" xmlns="http://www.w3.org/2000/svg">
<path d="M3.24865 2.37686L21.3086 11.0143C21.4912 11.1015 21.6453 11.2385 21.7532 11.4096C21.8611 11.5807 21.9184 11.7789 21.9184 11.9811C21.9184 12.1834 21.8611 12.3816 21.7532 12.5527C21.6453 12.7238 21.4912 12.8608 21.3086 12.948L3.24865 21.5854C3.06351 21.6741 2.85679 21.7077 2.65309 21.6823C2.44939 21.6569 2.25728 21.5735 2.09962 21.442C1.94196 21.3105 1.82539 21.1365 1.76378 20.9407C1.70216 20.7449 1.6981 20.5355 1.75208 20.3374L3.55893 13.7134C3.58105 13.6323 3.62657 13.5594 3.68983 13.5039C3.75309 13.4484 3.83127 13.4128 3.91465 13.4014L12.6661 12.2126C12.7027 12.2074 12.7373 12.1928 12.7666 12.1703C12.7958 12.1477 12.8188 12.118 12.8332 12.084L12.8486 12.0309C12.8554 11.983 12.8458 11.9343 12.8214 11.8926C12.7969 11.8509 12.7591 11.8187 12.7141 11.8011L12.6669 11.7883L3.92408 10.5994C3.84086 10.5879 3.76286 10.5522 3.69976 10.4968C3.63667 10.4413 3.59128 10.3685 3.56922 10.2874L1.75208 3.62572C1.69788 3.4276 1.70178 3.21808 1.7633 3.02212C1.82482 2.82615 1.94137 2.652 2.09907 2.52041C2.25677 2.38881 2.44897 2.30531 2.65279 2.27986C2.8566 2.25441 3.06343 2.28808 3.24865 2.37686Z" fill="#E5E5E5"/>
</svg>
